<svg width="266" viewBox="0 0 266 28" fill="none" xmlns="http://www.w3.org/2000/svg">
<rect y="19.1611" width="66.6077" height="0.912435" fill="#D5D185"/>
<rect y="25.5482" width="66.6077" height="0.912435" fill="#D5D185"/>
<rect y="6.38705" width="66.6077" height="0.912435" fill="#D5D185"/>
<rect y="12.7741" width="66.6077" height="0.912435" fill="#D5D185"/>
<rect width="66.6077" height="0.912435" fill="#D5D185"/>
<path d="M82.8786 5.1246C81.5203 5.52592 80.1002 7.0386 79.6989 8.52041C79.2667 10.1257 79.6989 11.7001 81.0881 13.4906L82.1377 14.9107L80.9338 15.7134C79.3285 16.763 78.2171 18.4918 77.9701 20.2823C77.291 25.1908 83.8356 28.2161 89.6703 25.7156L91.1829 25.0364L92.4795 26.5182L93.7452 28L94.4553 27.2283C95.2888 26.333 95.1653 25.8699 93.6526 24.4499L92.7265 23.5546L93.4674 21.9802C94.3009 20.1588 94.4244 17.6891 93.7761 15.806L93.3439 14.6637H96.8632H100.382V20.5601V26.4874L104.797 26.333C108.656 26.2095 109.366 26.1169 110.879 25.4377C111.805 25.0055 113.009 24.2646 113.564 23.8016C115.108 22.505 116.435 19.5105 116.652 16.8865L116.837 14.6637H135.143H153.481V13.892V13.1202H134.958C117.516 13.1202 116.435 13.0893 116.435 12.5645C116.435 11.6075 115.015 8.98348 113.935 7.90299C113.348 7.31644 112.113 6.48292 111.187 6.05073C109.675 5.3407 109.026 5.24808 104.951 5.15547L100.382 5.03199V9.07609V13.1202H95.227C92.356 13.1202 89.8555 12.9967 89.6394 12.8732C89.3307 12.6571 89.3615 12.3793 89.732 11.484C90.7816 8.98348 89.9172 6.72989 87.4167 5.46418C85.9966 4.75415 84.5457 4.63066 82.8786 5.1246ZM86.7684 7.74864C87.5402 8.39693 87.7254 8.76738 87.7254 9.78612C87.7254 10.4962 87.4475 11.484 87.1388 12.0088L86.5523 12.9658L87.2623 13.7994C87.8797 14.5403 88.2502 14.6637 89.5776 14.6637C90.9977 14.6637 91.1521 14.7255 91.4608 15.4973C92.0164 16.9482 92.1399 19.14 91.7386 20.344C91.5534 20.9614 91.2755 21.4554 91.1521 21.3936C91.0286 21.3319 89.0837 19.2018 86.7992 16.6704C81.5512 10.7431 81.0264 9.6009 82.7551 7.84125C83.9591 6.66815 85.4409 6.63728 86.7684 7.74864ZM109.798 7.84125C110.477 8.14996 111.403 8.79825 111.867 9.29219C112.669 10.1566 113.657 12.1015 113.657 12.8115C113.657 13.0276 111.928 13.1202 108.347 13.0585L103.007 12.9658L102.914 10.0948L102.821 7.2547H105.692C107.822 7.2547 108.872 7.40906 109.798 7.84125ZM113.904 16.8865C113.75 19.3561 113.04 21.0849 111.589 22.4432C110.169 23.8016 108.718 24.2338 105.631 24.2338H102.852V19.4488V14.6637H108.44H114.058L113.904 16.8865ZM86.5523 19.7883C88.1267 21.6097 89.4542 23.1842 89.5159 23.3076C89.6703 23.7398 87.0771 24.5425 85.4718 24.5425C81.7364 24.5116 79.2976 21.8258 80.6559 19.2018C81.1498 18.2139 82.8478 16.516 83.3108 16.516C83.5269 16.516 84.9779 17.9978 86.5523 19.7883Z" fill="black"/>
<path d="M45.8333 5.4642C45.8951 5.6803 47.4078 10.4962 49.1674 16.1456L52.378 26.4256L53.8907 26.333L55.3725 26.2404L57.3791 19.6031C58.4905 15.9604 59.5709 12.2867 59.787 11.4532C60.034 10.6505 60.281 9.90963 60.3427 9.81701C60.5279 9.66266 60.5897 9.81701 63.0285 18.0596C64.0781 21.548 65.066 24.8512 65.2203 25.376C65.529 26.333 65.6217 26.3948 67.0109 26.3948H68.4618L71.6415 16.1147C73.4012 10.4962 74.9138 5.6803 75.0065 5.4642C75.0991 5.15549 74.7904 5.09375 73.679 5.15549L72.1972 5.2481L69.7275 13.892C68.4001 18.6461 67.1961 22.6285 67.0726 22.752C66.9491 22.8755 65.6834 19.0475 64.2633 14.2007L61.6393 5.40246H60.4045H59.1696L56.5765 14.2007C55.1255 19.0475 53.8907 22.9063 53.7981 22.8137C53.7054 22.7211 52.5015 18.7387 51.1432 13.9537L48.6426 5.2481L47.1608 5.15549C46.0494 5.09375 45.7099 5.15549 45.8333 5.4642Z" fill="black"/>
<path d="M158.265 12.0397C157.308 12.9658 157.185 15.4664 158.049 16.4542C158.852 17.4421 160.025 17.5965 160.92 16.8556C161.877 16.0838 161.507 15.6825 160.488 16.3616C159.469 17.0099 158.543 16.5777 158.265 15.2812C157.772 13.0584 159.006 11.3914 160.426 12.3175C161.383 12.935 161.754 12.4101 160.828 11.7619C159.84 11.0827 159.13 11.1444 158.265 12.0397Z" fill="black"/>
<path d="M165.613 11.5766C163.915 12.2558 164.069 16.3925 165.798 17.1334C167.496 17.8126 168.607 16.6395 168.607 14.2007C168.607 13.1202 168.422 12.6263 167.835 12.0397C167.033 11.2062 166.693 11.1444 165.613 11.5766ZM167.064 12.1941C168.237 12.8115 168.206 15.8986 167.002 16.5469C166.539 16.7938 166.261 16.763 165.798 16.3308C165.026 15.6516 164.995 13.2745 165.736 12.441C166.323 11.7927 166.323 11.7927 167.064 12.1941Z" fill="black"/>
<path d="M186.173 11.8545C185.525 12.3484 185.432 12.7189 185.432 14.3551C185.432 15.9912 185.525 16.3617 186.173 16.8556C187.099 17.5965 187.902 17.5965 188.643 16.8556C189.847 15.6516 189.847 13.0585 188.674 11.8854C187.902 11.1136 187.099 11.1136 186.173 11.8545ZM188.18 12.3793C189.168 13.3672 188.612 16.8247 187.47 16.8247C187.346 16.8247 186.976 16.6395 186.667 16.3925C186.235 16.0838 186.08 15.5899 186.08 14.3551C186.08 13.1202 186.235 12.6263 186.667 12.3176C187.408 11.7619 187.593 11.7619 188.18 12.3793Z" fill="black"/>
<path d="M193.366 11.7618C192.965 12.0397 192.687 12.5645 192.687 12.9967C192.687 13.6141 192.965 13.8919 194.076 14.3859C195.157 14.849 195.465 15.1577 195.465 15.7133C195.465 16.763 194.601 16.9791 193.52 16.2073C192.347 15.312 191.977 15.7442 193.119 16.7321C194.107 17.5656 195.311 17.5039 196.021 16.5777C196.669 15.7133 196.299 14.9107 194.848 14.0463C193.366 13.1819 193.119 12.6262 193.983 12.1014C194.385 11.8236 194.663 11.8853 195.126 12.3484C195.496 12.6571 195.867 12.8115 196.021 12.688C196.268 12.4101 194.971 11.2679 194.416 11.2679C194.23 11.2679 193.736 11.484 193.366 11.7618Z" fill="black"/>
<path d="M214.358 11.6384C213.37 12.1323 212.876 14.0155 213.309 15.5282C213.772 17.0717 214.852 17.6274 216.365 17.1026C217.353 16.7939 217.414 16.7013 217.322 15.4973C217.229 14.2933 217.168 14.2007 216.241 14.1081C215.655 14.0463 215.223 14.139 215.223 14.3242C215.223 14.5094 215.5 14.6638 215.84 14.6638C216.303 14.6638 216.457 14.8799 216.457 15.559C216.457 16.6704 215.717 17.01 214.729 16.3617C213.401 15.4973 213.926 11.8854 215.377 11.8854C215.531 11.8854 215.902 12.1323 216.211 12.4102C216.612 12.7498 216.89 12.8115 217.106 12.5954C217.816 11.8854 215.531 11.0519 214.358 11.6384Z" fill="black"/>
<path d="M228.281 11.5766C227.756 11.7927 227.571 12.1323 227.571 12.8115C227.571 13.6141 227.756 13.8302 228.96 14.4168C230.473 15.1577 230.782 15.9603 229.763 16.516C228.96 16.9173 228.929 16.9173 228.188 16.1455C227.478 15.3738 227.046 15.559 227.54 16.4542C228.374 17.9978 230.967 17.3495 230.967 15.5899C230.967 14.7872 230.751 14.5711 229.578 13.9846C228.158 13.2745 227.756 12.441 228.682 12.0706C228.96 11.9471 229.547 12.1014 229.948 12.3793C230.967 13.0276 231.306 12.5954 230.38 11.8545C229.578 11.2062 229.3 11.1753 228.281 11.5766Z" fill="black"/>
<path d="M248.718 12.0397C247.761 12.9658 247.637 15.4664 248.502 16.4542C249.304 17.4421 250.477 17.5965 251.373 16.8556C252.33 16.0838 251.959 15.6825 250.94 16.3616C249.922 17.0099 248.995 16.5777 248.718 15.2812C248.224 13.0584 249.459 11.3914 250.879 12.3175C251.836 12.935 252.206 12.4101 251.28 11.7619C250.292 11.0827 249.582 11.1444 248.718 12.0397Z" fill="black"/>
<path d="M262.826 11.7619C261.591 12.6262 262.085 13.7376 264.091 14.602C265.203 15.0651 265.512 15.8677 264.771 16.3925C263.999 16.9791 263.814 16.9482 263.042 16.1764C262.363 15.4972 261.961 15.5899 262.239 16.3616C262.579 17.1643 263.875 17.5965 264.771 17.1952C266.407 16.4234 266.16 14.6946 264.308 13.9537C263.011 13.4598 262.61 12.441 263.567 12.0706C264.215 11.8236 264.184 11.8236 264.74 12.3793C265.018 12.6262 265.388 12.8115 265.604 12.7497C266.129 12.5645 264.771 11.2679 264.061 11.2679C263.752 11.2679 263.196 11.484 262.826 11.7619Z" fill="black"/>
<path d="M171.386 12.935C171.386 13.6759 171.293 14.9107 171.201 15.7134C171.015 16.8865 171.077 17.1334 171.478 17.1334C171.88 17.1334 172.003 16.7012 172.065 14.8798L172.158 12.6571L172.806 14.0463L173.454 15.4355L174.195 14.0463L174.936 12.6571L175.029 14.8798C175.152 18.1213 175.708 17.6891 175.708 14.355C175.708 11.8853 175.646 11.5766 175.152 11.5766C174.812 11.5766 174.349 12.0397 174.01 12.7189L173.454 13.892L172.96 12.7497C172.25 11.0518 171.386 11.1444 171.386 12.935Z" fill="black"/>
<path d="M178.795 14.3242C178.795 16.6086 178.888 17.1334 179.258 17.1334C179.598 17.1334 179.721 16.7938 179.721 15.9295C179.721 14.7255 179.752 14.6946 180.863 14.602C181.728 14.5403 182.129 14.3242 182.407 13.7376C183.024 12.4719 182.314 11.7619 180.369 11.6384L178.795 11.5458V14.3242ZM181.11 12.1941C182.345 12.6571 182.067 13.8611 180.74 13.9846C179.752 14.0772 179.721 14.0463 179.721 12.9967C179.721 11.7927 179.875 11.731 181.11 12.1941Z" fill="black"/>
<path d="M200.497 11.9162C201.207 12.3484 201.3 16.516 200.559 16.516C200.312 16.516 200.096 16.6395 200.096 16.8247C200.096 16.9791 200.652 17.1334 201.331 17.1334C202.01 17.1334 202.566 16.9791 202.566 16.8247C202.566 16.6395 202.35 16.516 202.103 16.516C201.362 16.516 201.454 12.3484 202.195 11.9162C202.597 11.6693 202.411 11.6075 201.331 11.6075C200.25 11.6075 200.065 11.6693 200.497 11.9162Z" fill="black"/>
<path d="M206.27 14.355C206.27 15.9912 206.394 17.1334 206.579 17.1334C206.764 17.1334 206.887 16.1147 206.887 14.7255L206.918 12.3484L208.153 14.7255C209.82 18.0287 210.283 17.9361 210.283 14.355C210.283 12.7189 210.16 11.5766 209.975 11.5766C209.789 11.5766 209.666 12.5954 209.666 13.9537L209.635 16.3616L208.4 13.9537C206.733 10.6814 206.27 10.774 206.27 14.355Z" fill="black"/>
<path d="M234.363 14.355C234.363 16.6086 234.455 17.1334 234.826 17.1334C235.165 17.1334 235.289 16.7938 235.289 15.8986C235.289 14.6946 235.32 14.6637 236.307 14.6637C237.758 14.6637 238.592 13.7067 238.191 12.5645C237.913 11.7927 237.727 11.731 236.122 11.6384L234.363 11.5458V14.355ZM236.678 12.1941C237.913 12.6571 237.635 13.8611 236.307 13.9846C235.32 14.0772 235.289 14.0463 235.289 12.9967C235.289 11.7927 235.443 11.731 236.678 12.1941Z" fill="black"/>
<path d="M241.648 14.2316C241.092 15.9603 240.907 17.0099 241.092 17.1952C241.278 17.3804 241.494 17.1643 241.71 16.5469C241.988 15.7134 242.204 15.5899 243.13 15.5899C244.025 15.5899 244.241 15.7134 244.519 16.5469C244.704 17.0717 244.982 17.4113 245.137 17.3187C245.322 17.1952 245.044 15.9603 244.488 14.355C243.253 10.6814 242.821 10.6505 241.648 14.2316ZM243.902 14.7255C243.933 14.8798 243.531 14.9725 243.006 14.9725C242.42 14.9725 242.142 14.849 242.235 14.5711C242.296 14.3859 242.543 13.7685 242.729 13.2746L243.068 12.3484L243.469 13.4289C243.716 14.0155 243.902 14.602 243.902 14.7255Z" fill="black"/>
<path d="M255.355 14.355V17.1334H257.207C258.226 17.1334 259.06 17.0099 259.06 16.8247C259.06 16.6395 258.349 16.516 257.485 16.516H255.942L256.034 15.4973C256.127 14.602 256.219 14.5094 257.3 14.4168C258.843 14.2933 258.751 13.7376 257.176 13.7376C256.003 13.7376 255.942 13.7067 256.034 12.8732C256.127 12.1323 256.281 12.0088 257.67 11.8545L259.214 11.6693L257.3 11.6384L255.355 11.5766V14.355Z" fill="black"/>
</svg>
