<svg width="69" height="48" viewBox="0 0 69 48" fill="none" xmlns="http://www.w3.org/2000/svg">
<path d="M2.16169 3.75421C0.428353 6.14624 0.028353 10.5316 0.028353 24.3522C0.028353 48.9369 -2.23831 47.3423 33.7617 47.3423C57.2283 47.3423 62.5617 46.9436 65.095 45.216C67.895 43.3555 68.0284 42.2924 68.0284 24.0864C68.0284 8.53827 67.6283 4.68444 65.895 2.95687C64.1617 1.09641 59.3617 0.830624 34.0284 0.830624C4.69502 0.830624 4.16169 0.830624 2.16169 3.75421ZM62.695 4.01999C62.695 4.81733 36.0284 27.9403 34.5617 28.4718C33.2284 29.0034 6.96169 6.27913 6.82835 4.41866C6.69502 3.8871 19.3617 3.48843 34.695 3.48843C50.1617 3.48843 62.695 3.75421 62.695 4.01999ZM15.7617 30.9967C3.76169 43.2227 4.02835 43.4884 4.02835 23.9535V7.20936L13.495 15.5815L22.8284 23.8207L15.7617 30.9967ZM64.0284 25.0167V41.3622L55.095 32.4585L46.1617 23.5549L54.0284 16.2459C58.4283 12.2592 62.4283 8.93694 63.095 8.80405C63.6283 8.80405 64.0284 16.113 64.0284 25.0167ZM30.0284 30.0665C31.3617 32.3256 37.7617 31.5283 40.695 28.7376L43.495 26.0798L52.0284 34.7177L60.5617 43.3555H34.0284H7.49502L15.895 34.8506C22.8284 27.8074 24.9617 26.4785 26.8284 27.5416C28.1617 28.206 29.6284 29.4021 30.0284 30.0665Z" fill="white"/>
</svg>
